<?xml version="1.0" encoding="utf-8"?>
<!-- Generator: Adobe Illustrator 19.1.0, SVG Export Plug-In . SVG Version: 6.00 Build 0)  -->
<svg version="1.1" id="Layer_1" xmlns="http://www.w3.org/2000/svg" xmlns:xlink="http://www.w3.org/1999/xlink" x="0px" y="0px"
	 viewBox="-153 276.9 289 289" style="enable-background:new -153 276.9 289 289;" xml:space="preserve">
<style type="text/css">
	.st0{display:none;}
	.st1{fill:#94AF58;}
</style>
<g id="exoticpets" class="st0">
</g>
<g id="Layer_2">
	<g>
		<path class="st1" d="M12.5,413.7c6.7,0,13.1,0,19.7,0c0.1,0.6,0.2,1.1,0.2,1.7c0,28.8,0,57.5,0,86.3c0,7.2-6.7,12-13.3,9.6
			c-4-1.4-6.5-5.1-6.6-9.7c0-15.3,0-30.7,0-46c0-13,0-26,0-39C12.5,415.7,12.5,414.7,12.5,413.7z"/>
		<path class="st1" d="M-108.9,428c0-0.7,0-1.2,0-1.7c0-28.3,0-56.7,0-85c0-7.4,6.7-12.3,13.4-9.8c4.1,1.5,6.5,5.2,6.5,10.1
			c0,16.2,0,32.4,0,48.6c0,12.5,0,25.1,0,37.8C-95.6,428-102.1,428-108.9,428z"/>
		<path class="st1" d="M91.8,421.8c-6.5,0-13,0-19.6,0c0-0.7,0-1.3,0-1.9c0-26.2,0-52.5,0-78.7c0-7.3,6.6-12.1,13.2-9.8
			c3.8,1.3,6.6,4.8,6.6,8.9c0.1,26.9,0,53.9,0,80.8C92,421.3,91.9,421.5,91.8,421.8z"/>
		<path class="st1" d="M-29.6,413.4c-6.5,0-13,0-19.5,0c0-0.5-0.1-0.9-0.1-1.4c0-23.6,0-47.2,0-70.9c0-7.3,6.6-12.1,13.2-9.8
			c3.8,1.3,6.6,4.8,6.6,8.9c0.1,24.1,0,48.3,0,72.4C-29.4,412.9-29.5,413.1-29.6,413.4z"/>
		<path class="st1" d="M6.6,382.7c0-5.7,0-11.5,0-17.2c0-3,0.8-3.9,3.9-4c7.9-0.1,15.9,0,23.8,0c3.1,0,3.9,0.9,3.9,3.9
			c0,11.5,0,23,0,34.5c0,3-0.8,3.9-3.9,4c-7.9,0.1-15.9,0.1-23.8,0c-3.1,0-3.9-0.9-3.9-4.2C6.6,394,6.6,388.4,6.6,382.7z"/>
		<path class="st1" d="M-23.5,445.3c0,5.7,0,11.3,0,17c0,3.2-0.9,4.1-4,4.1c-7.9,0-15.9,0-23.8,0c-2.8,0-3.8-1-3.8-3.8
			c0-11.6,0-23.2,0-34.8c0-2.8,1-3.8,3.7-3.8c8,0,16,0,24,0c2.9,0,3.8,1,3.8,4C-23.5,433.8-23.5,439.6-23.5,445.3z"/>
		<path class="st1" d="M66.3,452.6c0-5.8,0-11.7,0-17.5c0-2.8,1-3.7,3.8-3.8c8,0,16,0,24,0c2.7,0,3.7,1,3.7,3.8
			c0,11.6,0,23.2,0,34.8c0,2.8-1,3.7-3.8,3.8c-8,0-16,0-24,0c-2.8,0-3.7-1-3.7-3.8C66.3,464.1,66.3,458.4,66.3,452.6z"/>
		<path class="st1" d="M-83.2,459.6c0,5.7,0,11.3,0,17c0,3-0.9,3.9-3.9,3.9c-7.9,0-15.9,0-23.8,0c-2.9,0-3.9-1-3.9-3.9
			c0-11.5,0-23,0-34.5c0-3,0.9-3.9,3.9-3.9c7.9,0,15.9,0,23.8,0c2.9,0,3.9,1,3.9,3.9C-83.2,447.9-83.2,453.8-83.2,459.6z"/>
		<path class="st1" d="M-49.2,476c6.8,0,13.2,0,19.8,0c0,6.3,0,12.4,0,18.6c0,2.7,0.1,5.4,0,8.1c-0.3,5.1-4.5,9.1-9.6,9.3
			c-5.2,0.2-10-3.8-10.2-8.9C-49.4,494.1-49.2,485.1-49.2,476z"/>
		<path class="st1" d="M92,484.4c0,6.3,0.2,12.4-0.1,18.4c-0.2,5.2-4.8,9.2-10,9.1c-5.2-0.1-9.6-4.2-9.8-9.3c-0.2-6,0-12,0-18.2
			C78.7,484.4,85.2,484.4,92,484.4z"/>
		<path class="st1" d="M-108.9,490.6c6.7,0,13.1,0,19.8,0c0,4.4,0.3,8.8-0.1,13c-0.5,5.1-5.3,8.6-10.4,8.3c-4.9-0.3-9-4.4-9.3-9.3
			c-0.1-3.3,0-6.6,0-9.9C-108.9,492.1-108.9,491.5-108.9,490.6z"/>
		<path class="st1" d="M32.4,351.2c-6.7,0-13.1,0-19.7,0c0-4.2-0.4-8.4,0.1-12.4c0.7-5,5.5-8.2,10.5-7.8c4.9,0.4,8.9,4.5,9.1,9.5
			C32.4,343.9,32.4,347.4,32.4,351.2z"/>
	</g>
</g>
</svg>
