<?xml version="1.0" encoding="utf-8"?>
<!-- Generator: Adobe Illustrator 19.1.0, SVG Export Plug-In . SVG Version: 6.00 Build 0)  -->
<svg version="1.1" id="Layer_1" xmlns="http://www.w3.org/2000/svg" xmlns:xlink="http://www.w3.org/1999/xlink" x="0px" y="0px"
	 viewBox="-153 -26.6 595 592.5" style="enable-background:new -153 -26.6 595 592.5;" xml:space="preserve">
<style type="text/css">
	.st0{display:none;}
	.st1{fill:#176821;}
</style>
<g id="exoticpets" class="st0">
</g>
<g id="Layer_2">
	<g>
		<g>
			<path class="st1" d="M122-19.1c0,186.9,0,373.8,0,560.7c-0.3,0-0.8,0-1.1,0c0-186.9,0-373.8,0-560.7
				C121.3-19.1,121.7-19.1,122-19.1z"/>
			<path class="st1" d="M-54.5,93.9c0,114.2,0,228.4,0,342.5c-0.5,0-0.8,0-1.2,0c0-114.2,0-228.4,0-342.5
				C-55.3,93.9-54.9,93.9-54.5,93.9z"/>
			<path class="st1" d="M19.8,104.5c0,107.4,0,215.2,0,322.6c-0.3,0-0.7,0-1.1,0c0-107.4,0-215.2,0-322.6
				C19.1,104.5,19.5,104.5,19.8,104.5z"/>
			<path class="st1" d="M-92.4,412c0-97.2,0-194.8,0-292c0.5,0,0.8,0,1.2,0c0,97.6,0,195.2,0,293.2C-91.7,412.7-92.1,412.3-92.4,412
				z"/>
			<path class="st1" d="M-139.2,409.7c0-96.1,0-192.2,0-288.3c0.3,0,0.8,0,1.1,0c0,95.7,0,191.4,0,287.1
				C-138.4,409-138.8,409.3-139.2,409.7z"/>
			<path class="st1" d="M-98.8,519.4c0-169.2,0-338.8,0-508c0.3,0,0.6,0,0.9,0c0,169.2,0,338.8,0,508
				C-98.2,519.4-98.5,519.4-98.8,519.4z"/>
			<path class="st1" d="M115.4,15.2c0,167.7,0,335.4,0,503.1c-0.2,0-0.6,0-0.8,0c0-167.7,0-335.4,0-503.1
				C114.9,15.2,115.1,15.2,115.4,15.2z"/>
			<path class="st1" d="M-94.7,31c0,156,0,311.6,0,467.6c-0.2,0-0.6,0-0.8,0c0-156,0-311.6,0-467.6C-95.3,31-94.9,31-94.7,31z"/>
			<path class="st1" d="M118.7,40.4c0,150.4,0,300.7,0,450.7c-0.3,0-0.6,0-0.9,0c0-150,0-299.9,0-449.9
				C118.1,41.2,118.4,40.8,118.7,40.4z"/>
			<path class="st1" d="M-73.1,405.6c0-93.8,0-188,0-281.9c0.5,0,0.8,0,1.2,0c0,93.8,0,187.3,0,281.1
				C-72.3,404.8-72.7,405.2-73.1,405.6z"/>
			<path class="st1" d="M48.3,376.6c0-76.9,0-154.1,0-231c0.3,0,0.8,0,1.1,0c0,76.9,0,154.1,0,231C49.1,376.6,48.6,376.6,48.3,376.6
				z"/>
			<path class="st1" d="M126.2,61.2c0,136,0,272.1,0,408.5c-0.3,0-0.6,0-0.9,0c0-136,0-272.1,0-408.5
				C125.6,61.2,125.9,61.2,126.2,61.2z"/>
			<path class="st1" d="M-6.7,451.9c0-124,0-248.3,0-372.3c0.3,0,0.7,0,0.9,0c0,124,0,248.3,0,372.3C-6.1,451.9-6.5,451.9-6.7,451.9
				z"/>
			<path class="st1" d="M92.6,87.5c0,118.3,0,236.6,0,355.3c-0.3,0-0.6,0-0.9,0c0-118.3,0-236.6,0-355.3
				C92.1,87.5,92.3,87.5,92.6,87.5z"/>
			<path class="st1" d="M-88.1,446.3c0-120.6,0-241.2,0-361.4c0.3,0,0.6,0,0.9,0c0,120.6,0,241.2,0,361.7
				C-87.5,446.3-87.8,446.3-88.1,446.3z"/>
			<path class="st1" d="M-79.6,93.2c0,115.3,0,230.2,0,345.5c-0.3,0-0.6,0-0.9,0c0-114.9,0-229.5,0-344.4
				C-80.2,93.9-79.9,93.6-79.6,93.2z"/>
			<path class="st1" d="M-3.7,428.2c0-108.1,0-216.7,0-324.8c0.3,0,0.6,0,0.9,0c0,107.4,0,215.2,0,322.6
				C-3.1,426.7-3.3,427.4-3.7,428.2z"/>
			<path class="st1" d="M84,341.5c0-50.1,0-99.9,0-150c0.3,0,0.8,0,1.1,0c0,50.1,0,99.9,0,150C84.8,341.5,84.5,341.5,84,341.5z"/>
			<path class="st1" d="M-124.8,414.6c0-99.5,0-198.6,0-298.1c0.2,0,0.6,0,0.8,0c0,99.5,0,198.6,0,298.1
				C-124.2,414.6-124.5,414.6-124.8,414.6z"/>
			<path class="st1" d="M44.1,410.1c0-98,0-195.9,0-293.9c0.2,0,0.6,0,0.8,0c0,99.5,0,199.3,0,298.8C44.7,413.5,44.4,412,44.1,410.1
				z"/>
			<path class="st1" d="M0.9,188.5c0,52,0,103.6,0,155.6c-0.3,0-0.8,0-1.1,0c0-52,0-103.6,0-155.6C0.1,188.5,0.5,188.5,0.9,188.5z"
				/>
			<path class="st1" d="M128.5,402.6c0-91.2,0-182,0-273.2c0.2,0,0.6,0,0.9,0c0,90.8,0,181.2,0,272.1
				C129,401.8,128.8,402.2,128.5,402.6z"/>
			<path class="st1" d="M-84.7,392c0-84.4,0-168.8,0-252.8c0.3,0,0.6,0,0.9,0c0,85.2,0,169.9,0,255.1
				C-84.2,393.5-84.5,392.8-84.7,392z"/>
			<path class="st1" d="M-68.7,132c0,88.9,0,178.2,0,267.2c-0.3,0-0.6,0-0.9,0c0-88.9,0-178.2,0-267.2C-69.3,132-69.1,132-68.7,132z
				"/>
			<path class="st1" d="M89.3,155.7c0,73.1,0,146.2,0,219.7c-0.2,0-0.6,0-0.8,0c0-73.1,0-146.2,0-219.7
				C88.9,155.7,89.1,155.7,89.3,155.7z"/>
			<path class="st1" d="M59.2,374.7c0-73.1,0-146.2,0-219.3c0.3,0,0.6,0,0.9,0c0,72.7,0,145.8,0,218.6
				C59.7,373.9,59.4,374.3,59.2,374.7z"/>
			<path class="st1" d="M40.9,373.5c0-72,0-143.9,0-215.9c0.3,0,0.6,0,0.9,0c0,72,0,143.9,0,215.9C41.5,373.5,41.1,373.5,40.9,373.5
				z"/>
			<path class="st1" d="M22.3,374.7c0-73.5,0-146.6,0-220.1c0.3,0,0.6,0,0.9,0c0,73.9,0,147.7,0,221.6
				C22.9,375.8,22.5,375.4,22.3,374.7z"/>
			<path class="st1" d="M15.9,156.1c0,73.5,0,147,0,220.1c-0.3,0-0.6,0-0.9,0c0-73.1,0-146.2,0-219.3
				C15.3,156.5,15.5,156.5,15.9,156.1z"/>
			<path class="st1" d="M3.9,373.2c0-71.6,0-143.2,0-215.2c0.3,0,0.6,0,0.9,0c0,70.8,0,142.1,0,212.9C4.6,371.7,4.3,372.4,3.9,373.2
				z"/>
			<path class="st1" d="M-77.3,373.2c0-72,0-143.9,0-216.3c0.3,0,0.6,0,0.9,0c0,72.3,0,144.7,0,217
				C-76.7,373.9-76.9,373.5-77.3,373.2z"/>
			<path class="st1" d="M-103,373.2c0-71.2,0-142.4,0-213.7c0.2,0,0.6,0,0.8,0c0,71.2,0,142.4,0,213.7
				C-102.4,373.2-102.8,373.2-103,373.2z"/>
			<path class="st1" d="M-126.9,206.2c0,39.2,0,78.4,0,117.6c-0.3,0-0.7,0-1,0c0-39.2,0-78.4,0-117.6
				C-127.7,206.2-127.3,206.2-126.9,206.2z"/>
			<path class="st1" d="M67.8,224.7c0,27.1,0,54.3,0,81.4c-0.3,0-0.8,0-1.1,0.4c0-26.4,0-53.1,0-79.5
				C67,225.8,67.3,225.1,67.8,224.7z"/>
			<path class="st1" d="M36.9,302.7c0-23.7,0-47.1,0-70.8c0.2-0.4,0.5-0.8,0.7-1.1c0,23.7,0,47.5,0,71.6
				C37.4,302.3,37.2,302.3,36.9,302.7z"/>
			<path class="st1" d="M30.9,223.6c0,27.1,0,54.3,0,81.8c-0.3,0.4-0.7,0.4-1.1,0.8c0-26.8,0-53.9,0-80.6
				C30.3,224.7,30.6,223.9,30.9,223.6z"/>
			<path class="st1" d="M-134.8,188.9c0,50.5,0,101.4,0,151.9c-0.3,0-0.6,0-0.9,0c0-50.5,0-101.4,0-151.9
				C-135.3,188.9-135,188.9-134.8,188.9z"/>
			<path class="st1" d="M-32.8,343.8c0-52,0-104.4,0-156.4c0.3,0,0.6,0,0.9,0c0,52,0,104.4,0,156.4
				C-32.2,343.8-32.5,343.8-32.8,343.8z"/>
			<path class="st1" d="M-35.2,230.3c0,23.4,0,46.7,0,70.1c-0.3,0-0.8,0-1.1,0c0-23.4,0-46.7,0-70.1
				C-35.9,230.3-35.5,230.3-35.2,230.3z"/>
			<path class="st1" d="M102.5,300.8c0-23.4,0-46.7,0-70.1c0.3,0,0.8,0,1.1,0c0,23.4,0,46.7,0,70.1
				C103.2,300.8,102.8,300.8,102.5,300.8z"/>
			<path class="st1" d="M-121.7,324.9c0-39.6,0-79.1,0-118.7c0.3,0,0.7,0,1,0c0,39.9,0,80.3,0,120.2
				C-121,326.1-121.4,325.7-121.7,324.9z"/>
			<path class="st1" d="M-57.7,199.4c0,44.5,0,88.9,0,133.4c-0.3,0-0.6,0-0.9,0c0-44.8,0-89.7,0-134.5
				C-58.3,198.7-58,199.1-57.7,199.4z"/>
			<path class="st1" d="M-14.3,329.4c0-43.7,0-87.4,0-131.1c0.3,0,0.6,0,0.9,0c0,44.1,0,88.6,0,132.6
				C-13.7,330.6-14.1,330.2-14.3,329.4z"/>
			<path class="st1" d="M56,198.7c0,43.7,0,87.4,0,131.1c-0.2,0-0.6,0-0.8,0.4c0-43.7,0-87.4,0-131.5
				C55.5,198.7,55.8,198.7,56,198.7z"/>
			<path class="st1" d="M-146.3,314.8c0-32.4,0-64.8,0-97.6c0.2,0,0.5,0,0.7,0c0,32.4,0,64.8,0,97.2
				C-145.8,314.8-146.1,314.8-146.3,314.8z"/>
			<path class="st1" d="M139.6,290.6c0-16.6,0-33.5,0-50.1c0.3,0,0.8,0,1.1,0c0,16.6,0,33.5,0,50.1
				C140.3,290.3,139.9,290.3,139.6,290.6z"/>
			<path class="st1" d="M95.9,319.7c0-36.6,0-73.1,0-109.7c0.3,0,0.6,0,0.9,0c0,36.2,0,72.7,0,108.9
				C96.5,319.3,96.3,319.7,95.9,319.7z"/>
			<path class="st1" d="M81.9,205.5c0,39.9,0,80.3,0,120.2c-0.2,0-0.6,0-0.8,0c0-39.9,0-80.3,0-120.2
				C81.3,205.5,81.5,205.5,81.9,205.5z"/>
			<path class="st1" d="M-117.2,321.2c0-37.3,0-74.2,0-111.5c0.2,0,0.6,0,0.8,0c0,37.3,0,74.2,0,111.5
				C-116.6,321.2-116.9,321.2-117.2,321.2z"/>
			<path class="st1" d="M77.7,320c0-35.4,0-70.8,0-106.3c0.2,0,0.5,0,0.8,0c0,35.4,0,70.8,0,106.3C78.2,319.7,78,320,77.7,320z"/>
			<path class="st1" d="M-65.3,211.5c0,36.9,0,73.5,0,110.4c-0.3,0-0.6,0-0.9,0c0-37.3,0-74.2,0-111.5
				C-65.9,210.8-65.7,211.1-65.3,211.5z"/>
			<path class="st1" d="M-28.5,206.2c0,38.8,0,77.6,0,116.4c-0.2,0-0.6,0-0.8,0c0-38.8,0-77.6,0-116.4
				C-29.1,206.6-28.8,206.2-28.5,206.2z"/>
			<path class="st1" d="M52.5,206.2c0,39.9,0,80.3,0,120.2c-0.3,0-0.6,0-0.9,0c0-39.9,0-79.9,0-120.2
				C51.9,206.6,52.3,206.2,52.5,206.2z"/>
			<path class="st1" d="M26.6,212.3c0,35.4,0,70.8,0,105.9c-0.2,0-0.6,0-0.8,0c0-35,0-70.5,0-105.5
				C26.2,212.6,26.4,212.3,26.6,212.3z"/>
			<path class="st1" d="M-110.4,287.6c0-15.1,0-29.8,0-44.8c0.3,0,0.7,0,1-0.4c0,15.1,0,29.8,0,44.8
				C-109.7,287.6-110,287.6-110.4,287.6z"/>
			<path class="st1" d="M143.8,312.1c0-30.9,0-62.2,0-93.1c0.2,0,0.6,0,0.8,0c0,30.9,0,62.2,0,93.1
				C144.2,312.1,144,312.1,143.8,312.1z"/>
			<path class="st1" d="M137,216c0,32.8,0,65.9,0,98.7c-0.2,0-0.6,0-0.8,0c0-32.8,0-65.9,0-98.7C136.5,216,136.7,216,137,216z"/>
			<path class="st1" d="M62.5,310.6c0-30.5,0-61.4,0-91.9c0.3,0,0.6,0,0.9,0c0,31.3,0,62.6,0,93.8C63,311.7,62.8,311,62.5,310.6z"/>
			<path class="st1" d="M34.2,218.3c0,31.7,0,63.3,0,95c-0.3,0-0.6,0-0.9,0c0-32,0-63.7,0-95.7C33.7,217.9,33.9,218.3,34.2,218.3z"
				/>
			<path class="st1" d="M12.6,229.6c0,26,0,51.6,0,77.6c-0.3,0-0.6,0-0.9,0c0-27.5,0-55,0-82.5C12,226.6,12.2,228.1,12.6,229.6z"/>
			<path class="st1" d="M8.3,224.7c0,28.3,0,56.9,0,85.2c-0.3,0-0.6,0-0.9,0c0-29.8,0-59.9,0-89.7C7.7,221.7,7.9,223.2,8.3,224.7z"
				/>
			<path class="st1" d="M-40.4,309.9c0-30.1,0-60.7,0-90.8c0.3,0,0.6,0,0.9,0c0,30.9,0,61.8,0,92.7
				C-39.8,311.4-40.2,310.6-40.4,309.9z"/>
			<path class="st1" d="M-43.7,311.7c0-30.9,0-61.8,0-92.7c0.3,0,0.6,0,0.9,0c0,30.1,0,60.3,0,90.4C-43.1,310.2-43.3,311-43.7,311.7
				z"/>
			<path class="st1" d="M-47,219.8c0,31.3,0,62.6,0,93.8c-0.3,0-0.6,0-0.9,0c0-31.7,0-62.9,0-94.6C-47.5,219-47.2,219.4-47,219.8z"
				/>
			<path class="st1" d="M-106.3,311c0-29.8,0-59.5,0-88.9c0.2,0,0.5,0,0.7,0c0,29.8,0,59.5,0,88.9C-105.8,311-106.1,311-106.3,311z"
				/>
			<path class="st1" d="M73.4,300.1c0-23,0-46,0-69.3c0.3,0,0.7,0,0.9,0c0,23,0,46,0,69.3C74,300.1,73.7,300.1,73.4,300.1z"/>
			<path class="st1" d="M133.8,240.1c0,16.6,0,33.2,0,49.7c-0.3,0-0.6,0-0.9,0.4c0-17.3,0-34.7,0-51.6
				C133.2,239,133.6,239.4,133.8,240.1z"/>
			<path class="st1" d="M106.9,294c0-19.6,0-39.2,0-58.8c0.3,0,0.6,0,0.9,0c0,19.6,0,39.2,0,58.4C107.5,293.7,107.1,294,106.9,294z"
				/>
			<path class="st1" d="M99.3,294.4c0-19.6,0-39.2,0-58.4c0.3,0,0.6,0,0.9,0c0,19.6,0,39.2,0,59.2C99.9,294.4,99.6,294.4,99.3,294.4
				z"/>
			<path class="st1" d="M-25.3,292.5c0-17.3,0-34.7,0-52c0.2,0,0.5,0,0.7-0.4c0,17.3,0,34.7,0,51.6
				C-24.9,292.1-25.1,292.5-25.3,292.5z"/>
			<path class="st1" d="M-113,239.4c0,17.7,0,35.8,0,53.5c-0.3,0-0.6,0-0.9,0c0-18.5,0-36.6,0-55C-113.5,238.6-113.2,239-113,239.4z
				"/>
			<path class="st1" d="M-132.4,292.9c0-17.7,0-35.4,0-53.1c0.2,0,0.5,0,0.7,0c0,17.7,0,35.4,0,53.1
				C-131.9,292.9-132.1,292.9-132.4,292.9z"/>
			<path class="st1" d="M-142.3,234.5c0,20.3,0,41.1,0,61.4c-0.2,0-0.6,0-0.8,0c0-20.3,0-41.1,0-61.4
				C-142.9,234.5-142.6,234.5-142.3,234.5z"/>
			<path class="st1" d="M-62.3,282.3c0-11.7,0-23,0-34.7c0.3,0,0.6,0,0.9-0.4c0,12.1,0,24.5,0,36.6
				C-61.7,283.5-62.1,283.1-62.3,282.3z"/>
			<path class="st1" d="M-50.4,245.4c0,13.2,0,26.8,0,39.9c-0.2,0-0.6,0-0.8,0c0-13.2,0-26.8,0-39.9
				C-50.9,245.4-50.6,245.4-50.4,245.4z"/>
			<path class="st1" d="M-20.7,250.7c-0.1,11.3-0.2,23-0.3,34.3c-0.2,0-0.6-0.4-0.8-0.4c0-12.8,0-25.2,0-38.1
				C-21.5,248.1-21.1,249.6-20.7,250.7z"/>
			<path class="st1" d="M-10.2,244.7c0,13.9,0,27.9,0,41.8c-0.2,0-0.6,0-0.8,0c0-13.9,0-27.9,0-41.8
				C-10.7,244.7-10.5,244.7-10.2,244.7z"/>
			<path class="st1" d="M110.2,284.6c0-12.4,0-24.5,0-36.9c0.2,0,0.6,0,0.8,0c0,12.4,0,24.5,0,36.9
				C110.8,284.6,110.4,284.6,110.2,284.6z"/>
			<path class="st1" d="M147.5,248.8c0,10.9,0,21.9,0,33.2c-0.2,0-0.3,0-0.6,0c0-10.9,0-21.9,0-33.2
				C147.2,248.8,147.3,248.8,147.5,248.8z"/>
			<path class="st1" d="M-17.3,257.1c0.1,5.3,0.2,10.2,0.3,15.4c-0.5,0.4-0.8,0.8-1.2,1.1c-0.1-5.3-0.2-10.2-0.3-15.4
				C-18.2,258.2-17.7,257.9-17.3,257.1z"/>
			<path class="st1" d="M70.1,279.3c0-9,0-17.7,0-26.8c0.2,0,0.5,0,0.8,0c0,9,0,17.7,0,26.8C70.5,279.3,70.3,279.3,70.1,279.3z"/>
		</g>
	</g>
</g>
<g id="Layer_2_1_">
	<g>
		<g>
			<path class="st1" d="M173.6,542c0-182.1,0-364.3,0-546.4c0.3,0,0.8,0,1.1,0c0,182.1,0,364.3,0,546.4
				C174.2,542,173.9,542,173.6,542z"/>
			<path class="st1" d="M345.5,431.8c0-111.3,0-222.5,0-333.8c0.4,0,0.8,0,1.2,0c0,111.3,0,222.5,0,333.8
				C346.3,431.8,346,431.8,345.5,431.8z"/>
			<path class="st1" d="M273.2,421.5c0-104.7,0-209.7,0-314.3c0.3,0,0.7,0,1.1,0c0,104.7,0,209.7,0,314.3
				C273.8,421.5,273.5,421.5,273.2,421.5z"/>
			<path class="st1" d="M382.6,121.9c0,94.7,0,189.9,0,284.6c-0.4,0-0.8,0-1.2,0c0-95.1,0-190.2,0-285.7
				C381.8,121.2,382.2,121.5,382.6,121.9z"/>
			<path class="st1" d="M428.1,124.1c0,93.6,0,187.3,0,280.9c-0.3,0-0.8,0-1.1,0c0-93.3,0-186.5,0-279.8
				C427.3,124.8,427.8,124.5,428.1,124.1z"/>
			<path class="st1" d="M388.8,17.2c0,164.9,0,330.1,0,495c-0.3,0-0.6,0-0.9,0c0-164.9,0-330.1,0-495
				C388.2,17.2,388.4,17.2,388.8,17.2z"/>
			<path class="st1" d="M180,508.6c0-163.4,0-326.8,0-490.2c0.2,0,0.6,0,0.8,0c0,163.4,0,326.8,0,490.2
				C180.5,508.6,180.3,508.6,180,508.6z"/>
			<path class="st1" d="M384.8,493.2c0-152,0-303.7,0-455.7c0.2,0,0.6,0,0.8,0c0,152,0,303.7,0,455.7
				C385.3,493.2,385,493.2,384.8,493.2z"/>
			<path class="st1" d="M176.8,484c0-146.5,0-293,0-439.2c0.3,0,0.6,0,0.9,0c0,146.2,0,292.3,0,438.5
				C177.3,483.2,177.1,483.6,176.8,484z"/>
			<path class="st1" d="M363.7,128.1c0,91.4,0,183.2,0,274.7c-0.4,0-0.8,0-1.2,0c0-91.4,0-182.5,0-273.9
				C362.9,128.9,363.3,128.5,363.7,128.1z"/>
			<path class="st1" d="M245.4,156.4c0,74.9,0,150.2,0,225.1c-0.3,0-0.8,0-1.1,0c0-74.9,0-150.2,0-225.1
				C244.6,156.4,245.1,156.4,245.4,156.4z"/>
			<path class="st1" d="M169.5,463.8c0-132.6,0-265.1,0-398.1c0.3,0,0.6,0,0.9,0c0,132.6,0,265.1,0,398.1
				C170,463.8,169.8,463.8,169.5,463.8z"/>
			<path class="st1" d="M299,83c0,120.8,0,242,0,362.8c-0.3,0-0.7,0-0.9,0c0-120.8,0-242,0-362.8C298.5,83,298.8,83,299,83z"/>
			<path class="st1" d="M202.2,438.1c0-115.3,0-230.6,0-346.3c0.3,0,0.6,0,0.9,0c0,115.3,0,230.6,0,346.3
				C202.8,438.1,202.5,438.1,202.2,438.1z"/>
			<path class="st1" d="M378.4,88.5c0,117.5,0,235,0,352.2c-0.3,0-0.6,0-0.9,0c0-117.5,0-235,0-352.5
				C377.7,88.5,378,88.5,378.4,88.5z"/>
			<path class="st1" d="M370.1,432.6c0-112.4,0-224.4,0-336.7c0.3,0,0.6,0,0.9,0c0,112,0,223.6,0,335.6
				C370.6,431.8,370.3,432.2,370.1,432.6z"/>
			<path class="st1" d="M296,106.1c0,105.4,0,211.2,0,316.5c-0.3,0-0.6,0-0.9,0c0-104.7,0-209.7,0-314.3
				C295.5,107.6,295.7,106.8,296,106.1z"/>
			<path class="st1" d="M210.6,190.6c0,48.8,0,97.3,0,146.2c-0.3,0-0.8,0-1.1,0c0-48.8,0-97.3,0-146.2
				C209.8,190.6,210.2,190.6,210.6,190.6z"/>
			<path class="st1" d="M414.1,119.3c0,96.9,0,193.5,0,290.5c-0.2,0-0.6,0-0.8,0c0-96.9,0-193.5,0-290.5
				C413.5,119.3,413.8,119.3,414.1,119.3z"/>
			<path class="st1" d="M249.5,123.7c0,95.5,0,191,0,286.4c-0.2,0-0.6,0-0.8,0c0-96.9,0-194.3,0-291.2
				C249,120.4,249.2,121.9,249.5,123.7z"/>
			<path class="st1" d="M291.6,339.7c0-50.7,0-101,0-151.7c0.3,0,0.8,0,1.1,0c0,50.7,0,101,0,151.7
				C292.4,339.7,291.9,339.7,291.6,339.7z"/>
			<path class="st1" d="M167.3,131.1c0,88.9,0,177.4,0,266.2c-0.2,0-0.6,0-0.9,0c0-88.5,0-176.6,0-265.1
				C166.7,131.8,166.9,131.4,167.3,131.1z"/>
			<path class="st1" d="M375.1,141.4c0,82.3,0,164.5,0,246.4c-0.3,0-0.6,0-0.9,0c0-83,0-165.6,0-248.6
				C374.5,139.9,374.8,140.6,375.1,141.4z"/>
			<path class="st1" d="M359.5,394.7c0-86.7,0-173.7,0-260.4c0.3,0,0.6,0,0.9,0c0,86.7,0,173.7,0,260.4
				C360,394.7,359.8,394.7,359.5,394.7z"/>
			<path class="st1" d="M205.4,371.6c0-71.2,0-142.5,0-214.1c0.2,0,0.6,0,0.8,0c0,71.2,0,142.5,0,214.1
				C205.9,371.6,205.6,371.6,205.4,371.6z"/>
			<path class="st1" d="M234.8,158.2c0,71.2,0,142.5,0,213.7c-0.3,0-0.6,0-0.9,0c0-70.9,0-142.1,0-213
				C234.3,159,234.6,158.6,234.8,158.2z"/>
			<path class="st1" d="M252.6,159.4c0,70.1,0,140.3,0,210.4c-0.3,0-0.6,0-0.9,0c0-70.1,0-140.3,0-210.4
				C252,159.4,252.4,159.4,252.6,159.4z"/>
			<path class="st1" d="M270.7,158.2c0,71.6,0,142.8,0,214.5c-0.3,0-0.6,0-0.9,0c0-72,0-143.9,0-215.9
				C270.2,157.1,270.5,157.5,270.7,158.2z"/>
			<path class="st1" d="M277,371.2c0-71.6,0-143.2,0-214.5c0.3,0,0.6,0,0.9,0c0,71.2,0,142.5,0,213.7
				C277.6,370.9,277.4,370.9,277,371.2z"/>
			<path class="st1" d="M288.6,159.7c0,69.8,0,139.5,0,209.7c-0.3,0-0.6,0-0.9,0c0-69,0-138.4,0-207.5
				C288,161.2,288.3,160.5,288.6,159.7z"/>
			<path class="st1" d="M367.8,159.7c0,70.1,0,140.3,0,210.8c-0.3,0-0.6,0-0.9,0c0-70.5,0-141,0-211.5
				C367.2,159,367.4,159.4,367.8,159.7z"/>
			<path class="st1" d="M392.8,159.7c0,69.4,0,138.8,0,208.2c-0.2,0-0.6,0-0.8,0c0-69.4,0-138.8,0-208.2
				C392.3,159.7,392.6,159.7,392.8,159.7z"/>
			<path class="st1" d="M416.2,322.4c0-38.2,0-76.4,0-114.6c0.3,0,0.7,0,1,0c0,38.2,0,76.4,0,114.6
				C416.9,322.4,416.5,322.4,416.2,322.4z"/>
			<path class="st1" d="M226.4,304.4c0-26.4,0-52.9,0-79.3c0.3,0,0.8,0,1.1-0.4c0,25.7,0,51.8,0,77.5
				C227.2,303.3,226.8,304,226.4,304.4z"/>
			<path class="st1" d="M256.5,228.4c0,23.1,0,45.9,0,69c-0.2,0.4-0.4,0.7-0.7,1.1c0-23.1,0-46.3,0-69.8
				C256,228.8,256.2,228.8,256.5,228.4z"/>
			<path class="st1" d="M262.3,305.5c0-26.4,0-52.9,0-79.7c0.3-0.4,0.7-0.4,1.1-0.7c0,26.1,0,52.5,0,78.6
				C263,304.4,262.7,305.1,262.3,305.5z"/>
			<path class="st1" d="M423.8,339.3c0-49.2,0-98.8,0-148c0.3,0,0.6,0,0.9,0c0,49.2,0,98.8,0,148C424.3,339.3,424,339.3,423.8,339.3
				z"/>
			<path class="st1" d="M324.4,188.4c0,50.7,0,101.7,0,152.4c-0.3,0-0.6,0-0.9,0c0-50.7,0-101.7,0-152.4
				C323.9,188.4,324.1,188.4,324.4,188.4z"/>
			<path class="st1" d="M326.8,298.9c0-22.8,0-45.5,0-68.3c0.3,0,0.8,0,1.1,0c0,22.8,0,45.5,0,68.3
				C327.4,298.9,327.1,298.9,326.8,298.9z"/>
			<path class="st1" d="M192.6,230.2c0,22.8,0,45.5,0,68.3c-0.3,0-0.8,0-1.1,0c0-22.8,0-45.5,0-68.3
				C191.9,230.2,192.3,230.2,192.6,230.2z"/>
			<path class="st1" d="M411.1,206.7c0,38.6,0,77.1,0,115.7c-0.3,0-0.7,0-1,0c0-38.9,0-78.2,0-117.1
				C410.4,205.6,410.8,206,411.1,206.7z"/>
			<path class="st1" d="M348.8,329c0-43.3,0-86.7,0-130c0.3,0,0.6,0,0.9,0c0,43.7,0,87.4,0,131.1C349.3,329.7,349,329.4,348.8,329z"
				/>
			<path class="st1" d="M306.4,202.3c0,42.6,0,85.2,0,127.8c-0.3,0-0.6,0-0.9,0c0-43,0-86.3,0-129.3
				C305.9,201.2,306.2,201.6,306.4,202.3z"/>
			<path class="st1" d="M237.9,329.7c0-42.6,0-85.2,0-127.8c0.2,0,0.6,0,0.8-0.4c0,42.6,0,85.2,0,128.2
				C238.3,329.7,238.1,329.7,237.9,329.7z"/>
			<path class="st1" d="M435.1,216.6c0,31.6,0,63.2,0,95.1c-0.2,0-0.4,0-0.7,0c0-31.6,0-63.2,0-94.7
				C434.5,216.6,434.8,216.6,435.1,216.6z"/>
			<path class="st1" d="M156.4,240.1c0,16.2,0,32.7,0,48.8c-0.3,0-0.8,0-1.1,0c0-16.2,0-32.7,0-48.8
				C155.8,240.5,156.1,240.5,156.4,240.1z"/>
			<path class="st1" d="M199,211.9c0,35.6,0,71.2,0,106.9c-0.3,0-0.6,0-0.9,0c0-35.3,0-70.9,0-106.1
				C198.4,212.2,198.7,211.9,199,211.9z"/>
			<path class="st1" d="M212.7,323.1c0-38.9,0-78.2,0-117.1c0.2,0,0.6,0,0.8,0c0,38.9,0,78.2,0,117.1
				C213.3,323.1,213,323.1,212.7,323.1z"/>
			<path class="st1" d="M406.7,210.4c0,36.4,0,72.3,0,108.7c-0.2,0-0.6,0-0.8,0c0-36.4,0-72.3,0-108.7
				C406.1,210.4,406.4,210.4,406.7,210.4z"/>
			<path class="st1" d="M216.8,211.5c0,34.5,0,69,0,103.6c-0.2,0-0.4,0-0.8,0c0-34.5,0-69,0-103.6
				C216.2,211.9,216.5,211.5,216.8,211.5z"/>
			<path class="st1" d="M356.2,317.3c0-36,0-71.6,0-107.6c0.3,0,0.6,0,0.9,0c0,36.4,0,72.3,0,108.7
				C356.7,318,356.5,317.6,356.2,317.3z"/>
			<path class="st1" d="M320.2,322.4c0-37.8,0-75.6,0-113.5c0.2,0,0.6,0,0.8,0c0,37.8,0,75.6,0,113.5
				C320.8,322,320.6,322.4,320.2,322.4z"/>
			<path class="st1" d="M241.3,322.4c0-38.9,0-78.2,0-117.1c0.3,0,0.6,0,0.9,0c0,38.9,0,77.9,0,117.1
				C241.9,322,241.5,322.4,241.3,322.4z"/>
			<path class="st1" d="M266.5,316.5c0-34.5,0-69,0-103.2c0.2,0,0.6,0,0.8,0c0,34.2,0,68.7,0,102.8
				C267,316.2,266.7,316.5,266.5,316.5z"/>
			<path class="st1" d="M400,243.1c0,14.7,0,29,0,43.7c-0.3,0-0.7,0-1,0.4c0-14.7,0-29,0-43.7C399.4,243.1,399.7,243.1,400,243.1z"
				/>
			<path class="st1" d="M152.4,219.2c0,30.1,0,60.6,0,90.7c-0.2,0-0.6,0-0.8,0c0-30.1,0-60.6,0-90.7
				C151.9,219.2,152.1,219.2,152.4,219.2z"/>
			<path class="st1" d="M159,312.8c0-31.9,0-64.3,0-96.2c0.2,0,0.6,0,0.8,0c0,31.9,0,64.3,0,96.2C159.4,312.8,159.2,312.8,159,312.8
				z"/>
			<path class="st1" d="M231.6,220.7c0,29.7,0,59.9,0,89.6c-0.3,0-0.6,0-0.9,0c0-30.5,0-61,0-91.4
				C231,219.6,231.3,220.3,231.6,220.7z"/>
			<path class="st1" d="M259.1,310.6c0-30.8,0-61.7,0-92.5c0.3,0,0.6,0,0.9,0c0,31.2,0,62.1,0,93.3
				C259.7,311,259.5,310.6,259.1,310.6z"/>
			<path class="st1" d="M280.2,299.6c0-25.3,0-50.3,0-75.6c0.3,0,0.6,0,0.9,0c0,26.8,0,53.6,0,80.4
				C280.8,302.6,280.6,301.1,280.2,299.6z"/>
			<path class="st1" d="M284.4,304.4c0-27.5,0-55.5,0-83c0.3,0,0.6,0,0.9,0c0,29,0,58.4,0,87.4C285,307.3,284.8,305.9,284.4,304.4z"
				/>
			<path class="st1" d="M331.8,221.4c0,29.4,0,59.1,0,88.5c-0.3,0-0.6,0-0.9,0c0-30.1,0-60.2,0-90.3
				C331.3,219.9,331.6,220.7,331.8,221.4z"/>
			<path class="st1" d="M335,219.6c0,30.1,0,60.2,0,90.3c-0.3,0-0.6,0-0.9,0c0-29.4,0-58.8,0-88.1C334.5,221,334.7,220.3,335,219.6z
				"/>
			<path class="st1" d="M338.3,309.2c0-30.5,0-61,0-91.4c0.3,0,0.6,0,0.9,0c0,30.8,0,61.3,0,92.2
				C338.8,309.9,338.5,309.5,338.3,309.2z"/>
			<path class="st1" d="M396.1,220.3c0,29,0,58,0,86.7c-0.2,0-0.4,0-0.7,0c0-29,0-58,0-86.7C395.6,220.3,395.8,220.3,396.1,220.3z"
				/>
			<path class="st1" d="M221,231c0,22.4,0,44.8,0,67.6c-0.3,0-0.7,0-0.9,0c0-22.4,0-44.8,0-67.6C220.3,231,220.7,231,221,231z"/>
			<path class="st1" d="M162.1,289.3c0-16.2,0-32.3,0-48.5c0.3,0,0.6,0,0.9-0.4c0,16.9,0,33.8,0,50.3
				C162.6,290.4,162.3,290.1,162.1,289.3z"/>
			<path class="st1" d="M188.3,236.8c0,19.1,0,38.2,0,57.3c-0.3,0-0.6,0-0.9,0c0-19.1,0-38.2,0-56.9
				C187.7,237.2,188.1,236.8,188.3,236.8z"/>
			<path class="st1" d="M195.7,236.5c0,19.1,0,38.2,0,56.9c-0.3,0-0.6,0-0.9,0c0-19.1,0-38.2,0-57.7
				C195.1,236.5,195.5,236.5,195.7,236.5z"/>
			<path class="st1" d="M317.1,238.3c0,16.9,0,33.8,0,50.7c-0.2,0-0.4,0-0.7,0.4c0-16.9,0-33.8,0-50.3
				C316.7,238.7,316.9,238.3,317.1,238.3z"/>
			<path class="st1" d="M402.6,290.1c0-17.3,0-34.9,0-52.1c0.3,0,0.6,0,0.9,0c0,18,0,35.6,0,53.6
				C403.1,290.8,402.8,290.4,402.6,290.1z"/>
			<path class="st1" d="M421.5,237.9c0,17.3,0,34.5,0,51.8c-0.2,0-0.4,0-0.7,0c0-17.3,0-34.5,0-51.8
				C421,237.9,421.3,237.9,421.5,237.9z"/>
			<path class="st1" d="M431.2,294.9c0-19.8,0-40,0-59.9c0.2,0,0.6,0,0.8,0c0,19.8,0,40,0,59.9C431.8,294.9,431.4,294.9,431.2,294.9
				z"/>
			<path class="st1" d="M353.2,248.2c0,11.4,0,22.4,0,33.8c-0.3,0-0.6,0-0.9,0.4c0-11.8,0-23.9,0-35.6
				C352.6,247.1,353,247.5,353.2,248.2z"/>
			<path class="st1" d="M341.6,284.2c0-12.9,0-26.1,0-38.9c0.2,0,0.6,0,0.8,0c0,12.9,0,26.1,0,38.9
				C342.1,284.2,341.8,284.2,341.6,284.2z"/>
			<path class="st1" d="M312.6,279.1c0.1-11,0.2-22.4,0.3-33.4c0.2,0,0.6,0.4,0.8,0.4c0,12.5,0,24.6,0,37.1
				C313.4,281.6,313.1,280.2,312.6,279.1z"/>
			<path class="st1" d="M302.4,284.9c0-13.6,0-27.2,0-40.8c0.2,0,0.6,0,0.8,0c0,13.6,0,27.2,0,40.8
				C302.9,284.9,302.7,284.9,302.4,284.9z"/>
			<path class="st1" d="M185.1,246c0,12.1,0,23.9,0,36c-0.2,0-0.6,0-0.8,0c0-12.1,0-23.9,0-36C184.5,246,184.9,246,185.1,246z"/>
			<path class="st1" d="M148.7,280.9c0-10.6,0-21.3,0-32.3c0.2,0,0.3,0,0.6,0c0,10.6,0,21.3,0,32.3
				C149,280.9,148.9,280.9,148.7,280.9z"/>
			<path class="st1" d="M309.3,272.8c-0.1-5.1-0.2-9.9-0.3-15.1c0.4-0.4,0.8-0.7,1.2-1.1c0.1,5.1,0.2,9.9,0.3,15.1
				C310.2,271.7,309.7,272.1,309.3,272.8z"/>
			<path class="st1" d="M224.2,251.2c0,8.8,0,17.3,0,26.1c-0.2,0-0.4,0-0.8,0c0-8.8,0-17.3,0-26.1
				C223.8,251.2,224,251.2,224.2,251.2z"/>
		</g>
	</g>
</g>
</svg>
