<?xml version="1.0" encoding="utf-8"?>
<!-- Generator: Adobe Illustrator 19.1.0, SVG Export Plug-In . SVG Version: 6.00 Build 0)  -->
<svg version="1.1" id="Layer_1" xmlns="http://www.w3.org/2000/svg" xmlns:xlink="http://www.w3.org/1999/xlink" x="0px" y="0px"
	 viewBox="-153 276.9 289 289" style="enable-background:new -153 276.9 289 289;" xml:space="preserve">
<style type="text/css">
	.st0{display:none;}
	.st1{fill:#5898AF;}
</style>
<g id="exoticpets" class="st0">
</g>
<g id="Layer_2">
	<g>
		<g>
			<path class="st1" d="M-17.3,307.2c5.9,0,11.9,0,17.8,0c11.4,4.7,21.9,10.4,28.1,21.7c1.7,3.1,2.1,8,4.6,9.4
				c10.6,6.2,8.5,16,8.3,25.3c-0.1,7.9-4.4,11.8-12.5,11.8c-2.1,0-4.9,0.1-6.3,1.3c-6.8,5.7-13.3,11.8-19.8,17.7
				c22.1-2.9,36.3,8,45.8,27.9c7.1,15,16.3,29,23.8,43.8c3.8,7.6,8.2,11,17,10.4c11.3-0.7,16,4.8,16.2,16.2c0.1,7.7,0,15.5,0,23.2
				c0,15.4-4.2,19.5-19.6,19.5c-63,0-126-0.1-189,0.1c-8.3,0-15.2-1.6-19.8-9c0-13.7,0-27.4,0-41c4.3-7.8,11.1-10.3,19.5-9.2
				c5.9,0.8,9.1-1.7,11.8-6.9c9.9-18.6,20.4-36.9,30.5-55.4c6.9-12.5,17.3-19.2,31.6-19.7c3.4-0.1,6.7-0.4,8.8-0.6
				c-6-5.3-12.1-11.1-18.6-16.4c-1.7-1.4-4.5-2-6.9-2c-8,0-12.2-3.9-12.5-11.8c-0.4-9.7,2.3-17.3,8-26.4
				C-41.8,323.4-32.2,313.1-17.3,307.2z M-35.7,494c18.9,0,36.3,0,54.6,0c0-16.8-0.2-33.1,0.2-49.3c0.1-3,2.4-6,3.7-9
				c2.3,1.9,5.4,3.4,6.9,5.9c4.8,7.8,9.1,16,13.6,24c6.8,12.2,9,13.1,23.9,9c-11.4-20.3-22.5-40.5-34.1-60.5
				c-4.4-7.5-12.1-10.4-20.5-10.6c-13.1-0.3-26.1-0.1-39.2-0.2c-12.5-0.1-21.2,5.6-27.1,16.7c-8.3,15.8-17.2,31.2-25.8,46.8
				c-1.5,2.7-2.8,5.5-4.3,8.7c17.2,1.9,17.2,1.9,24.7-11.5c4-7.3,7.8-14.7,12.2-21.7c1.7-2.7,4.8-4.5,7.3-6.7
				c1.3,3.3,3.7,6.5,3.8,9.8C-35.5,461.5-35.7,477.5-35.7,494z M-9.4,526.6c32.1,0,64.1-0.1,96.2,0.1c7.2,0.1,10.4-2.3,10-9.8
				c-0.4-7.7-0.3-15.4,0-23.2c0.2-6.2-2.4-8.5-8.5-8.3c-10.4,0.3-20.8,0.5-31.2-0.1c-7.9-0.4-13.7,1.3-17.3,8.9
				c-3.6,7.6-10,9.7-18.3,9.5c-19.3-0.5-38.6-0.7-57.9,0.1c-10.2,0.4-16.9-2.9-22-11.5c-1.8-3-6-6.3-9.2-6.5
				c-12.7-0.7-25.5-0.2-38.3-0.4c-5.9-0.1-7.8,2.7-7.7,8.2c0.2,7.4,0.4,14.9-0.1,22.3c-0.6,8.2,2.6,10.9,10.8,10.8
				C-71.7,526.3-40.5,526.6-9.4,526.6z M-35.3,357.5c0,15.5,11.5,27.2,26.9,27.2c15.3,0,26.9-11.7,26.9-27.2S7,330.4-8.4,330.4
				C-23.8,330.3-35.3,342-35.3,357.5z M-37.3,333.9c20.7-16.5,32.9-16.6,56.4-2C5.6,311.2-22.2,311.2-37.3,333.9z M-45.5,460.4
				c-12.5,16.3-12.5,21.1,0,31.3C-45.5,481.4-45.5,471.3-45.5,460.4z M28.8,460.6c0,10.8,0,21,0,32C41.5,478.3,41.4,477,28.8,460.6z
				"/>
		</g>
	</g>
</g>
</svg>
