<?xml version="1.0" encoding="utf-8"?>
<!-- Generator: Adobe Illustrator 19.1.0, SVG Export Plug-In . SVG Version: 6.00 Build 0)  -->
<svg version="1.1" id="Layer_1" xmlns="http://www.w3.org/2000/svg" xmlns:xlink="http://www.w3.org/1999/xlink" x="0px" y="0px"
	 viewBox="-153 276.9 289 289" style="enable-background:new -153 276.9 289 289;" xml:space="preserve">
<style type="text/css">
	.st0{display:none;}
	.st1{fill:#AF8F58;}
</style>
<g id="exoticpets" class="st0">
</g>
<g id="Layer_2">
	<g>
		<path class="st1" d="M-2.5,533.3c-5.1,0-10.2,0-15.3,0c-0.5-0.2-1-0.6-1.5-0.6c-20.4-2.7-33.5-14.4-41.1-33
			c-0.5-1.2-1.1-2.5-2-4.7c-1.7,7.3-3.5,13.5-4.6,19.9c-0.3,2.1,1.6,4.6,1.7,6.9c0,1.6-1,3.6-2.2,4.7c-1,0.9-3,0.9-4.5,1.2
			c-0.3-1.7-1-3.4-0.9-5.1c0.2-2.2,1.7-4.5,1.4-6.5c-1.9-11-4.3-22-6.6-33.9c-2.7,3.2-4.8,5.6-7,8.3c-7.8-6.9-15.3-13.5-22.9-20.1
			c-6.7,6.6-13.6,12.5-19.3,19.4c-2.8,3.4-4.8,4.6-8.6,2.8c0-0.6,0-1.1,0-1.7c0.7-0.4,1.6-0.6,2.2-1.2c8.4-8,16.8-16,24.9-24.3
			c5.9-5.9,11.2-12.4,17.1-18.3c4.9-4.8,4.1-13.8-2.2-16.8c-4.2-2-4.8-5.2-4.7-9.4c0.1-12.1,0.2-24.2-0.4-36.3
			c-0.2-3.9,0.4-6.5,3.6-8.7c1.2-0.8,2.7-2.5,2.6-3.8c-0.3-9.6-0.8-19.2-1.4-28.8c-0.2-3.3-2.6-6.9,2.2-8.9c0.4-0.1,0.3-1.3,0.5-2.2
			c-1.8-0.7-3.5-1.4-5.1-2.2c-9.6-4.4-19.2-8.8-28.8-13.5c-1.8-0.9-3.3-2.6-4.9-3.9c0.2-0.4,0.5-0.8,0.7-1.2
			c14.7-1.4,28,4.8,41.6,7.5c2-1.5,4.6-3.4,6.1-2.8s1.9,3.9,2.8,6c0.1,1.1,1.3,1.7,2.4,2.2c8.8,4.5,17.7,8.8,26.4,13.5
			c2.4,1.3,4.4,3.5,6.5,5.3c-0.3,0.5-0.5,1.1-0.8,1.6c-3.5-0.5-7.2-0.7-10.6-1.7c-9.8-2.8-19.4-6-29.1-8.9c-1.1-0.3-2.3,0-3.5,0
			c0.1,1-0.1,2.2,0.4,3c1.2,2.3,0.7,4-1.2,5.6c-0.7,0.6-1.5,1.6-1.5,2.4c0.3,9.3,0.8,18.6,1.2,27.4c8.3,0,16.1,0.1,23.8-0.1
			c1.2,0,3.4-0.7,3.5-1.3c0.2-1.3-0.3-3.2-1.2-4.1c-2.8-2.7-2.9-5.9-1-8.5c1.7-2.3,4.5-4.6,7.2-5.1c16-3.1,31.8-2.9,46,4.2
			c3.3-1.3,6.1-3.3,8.9-3.4c10.3-0.4,20.6-0.4,30.9,0c2.7,0.1,5.9,1.7,7.8,3.6c2.5,2.6-1.7,6.8,1.2,9.9c0.1,0.1-0.3,0.8-0.6,1
			c-4.8,2.6-1.7,6.8-2.7,10.4c6.3,0,11.9,0,18.1,0c-1-3.5,1.7-7-2.5-10c-2.6-1.9-1.3-4.6,2.1-5.4c0.9-0.2,1.8-0.7,2.7-1
			c-3-10.3-5.9-20.3-8.7-30.4c-0.7-2.4-1.8-3.1-4.2-2.7c-4.1,0.5-8.2,0.9-12.3,1c-6.7,0.2-13.4,0-20.1,0c10-7.3,21.9-8.1,32.8-10.4
			c1.7-2.3-1.2-6.1,3.4-6.6c4.9-0.6,3.5,3.6,4.7,5.9c11.3,0.6,22.8-1.1,33.5,3.6c0,0.4,0,0.9,0,1.3c-11.3,1.7-22.7,3.4-34.3,5.2
			c1.4,2.4,2.8,4.4,3.7,6.6c0.5,1.2,0.8,3.4,0.3,3.8c-2.7,1.9-1.3,3.9-0.7,5.9c5.4,17.3,10.7,34.5,16,51.8c1.4,4.5,2.7,9,4,13.5
			c-0.5,0.2-0.9,0.3-1.4,0.5c-1.7-4.3-3.5-8.5-5.2-12.8c-0.4,0.1-0.7,0.1-1.1,0.2c0.1,0.8-0.1,1.9,0.3,2.5c2.9,4.1,1.1,9.5-3.8,10.9
			c-1.2,0.4-2.5,1-3.5,1.8c-1.3,1.2-2.2,2.8-3.3,4.2c-1,2.1-1.2,4.6-1.2,7.1c0,1,0.3,2.6,1,3c3.4,1.8,2.6,2.9,0.4,5.5
			c-1.3,1.5-1.2,6.2,0.2,7.7c2.9,3.2,4.3-0.6,5.7-2.7c4.1-6.4,8.2-12.9,12.2-19.4c1.7-2.7,2.6-6.1,6.5-6.7c0.4-0.1,1-0.8,0.9-1.2
			c-0.7-8.2,3.6-16.8-2.7-25.1c6.3,0.4,5.5-4,5.7-7.7c0.3-6.1,0.5-12.2,1.2-18.2c0.4-3.8-1.1-4.9-4.4-5.6c-5.5-1.2-11-2.4-16.3-4.4
			c-2.1-0.8-3.5-3.6-5.2-5.4c1.9-1.5,3.5-4,5.6-4.5c5.7-1.3,11.6-2.1,17.5-2.6c3.3-0.3,4.7-1.2,4.9-4.7c0.3-8.1,1.1-16.1,1.7-24.1
			c0.6,0,1.1,0,1.7,0c-0.4,6.9-0.7,13.8-1.2,20.7c-0.2,2.3,0.1,3.9,3.3,2.5c-0.3,2.2-0.5,3.8-0.7,5.6c9.2,1.6,18.9,2.1,26.7,8.6
			c0,1.1,0,2.3,0,3.4c-3.4,1.5-6.7,3.6-10.3,4.3c-4.8,1-9.8,1.3-14.7,1.5c-3.4,0.2-5.3,1.3-5.3,4.9c0,1.6-0.2,3.1-0.3,4.7
			c-0.2,8-0.1,16-0.5,23.9c-0.4,7.6-1.3,15.2-2,22c1.6,1.7,3.1,2.6,3.6,4c4.6,13.9,9,28,13.6,41.9c2.1,6.4,4.8,12.6,7,19.1
			c0.4,1.2-0.6,2.8-0.9,4.2c-1.3-0.8-2.7-1.4-3.9-2.3c-0.5-0.4-0.5-1.3-0.7-1.9c-3.3-10.1-6.5-20.1-9.8-30.2c-1.3-4-4.1-5.4-9.1-4.9
			c0,5.3-0.3,10.6,0.1,15.7c0.3,4.5-2.1,6.3-5.5,8.4c-3.8,2.3-5.8-1.1-9.3-1.3c7,11,14,22,21,33c-3.2,2.4-4.6,2.3-6.5-1.2
			c-4.6-8.7-9.9-17.1-15.2-26.2c-1.5,2.2-2.3,3.7-3.4,5c-5.1,5.9-6.9,14.8-16.4,16.9c-2.8,0.6-3.4,0.4-3.9-2
			c-0.5-1.9-1.3-3.6-1.9-5.4c-1.6,7.8,2.9,22.6,7.3,25.7c-4.6,5.9,0.5,10.9,1.6,16.2c-4.5,1.3-4.7,0.9-5.5-3.3
			c-1.8-9.3-4-18.5-6.1-27.8c-1.3,1.3-1.8,2.5-2,3.7c-0.9,5.4-1.7,10.9-2.5,16.3c-0.5,3.3-1.2,6.5-6.4,6.6c0.7-3.6,1.4-6.9,2.1-10.3
			c-0.3,0.1-0.7,0.2-0.8,0.4c-0.9,1.1-1.8,2.2-2.6,3.3c-6.1,7.9-14,13.1-23.5,15.8C3.2,532.1,0.3,532.6-2.5,533.3z M-10.9,527.7
			c3.4-0.4,6.8-0.6,10.1-1.2c22.9-4.3,39.3-27,35.4-48.9c-3.3-19.1-18.5-33.8-37.9-36.7c-19.9-3-39.7,6.8-48.4,24.1
			C-66.4,493.7-44.4,527.3-10.9,527.7z M-84,434.1c-2.1,6.7-0.8,10.3,4.7,13.8c1.5,1,3,2.2,4.4,3.3c4.4,3.5,8.7,7.1,11.7,9.6
			c2-1.3,3.7-2.2,5.1-3.3c0.8-0.6,1.7-1.7,1.7-2.6c0.1-6.9,0.1-13.7,0.1-20.8C-65.7,434.1-74.7,434.1-84,434.1z M-105.2,468.1
			c5.9,5,11.9,10.2,18.8,16c-0.6-11.6-1.2-21.9-1.8-31.7C-93.8,457.6-99.4,462.7-105.2,468.1z M-68.6,465.3
			c-1.1,2.5-2.4,4.8-3.4,7.3c-1.1,2.6-3.1,5.4-2.7,7.8c1.5,8.2,3.8,16.3,6.1,25.7c0.7-2.5,1.2-3.7,1.4-5c1.2-8.8,1.7-17.6,3.5-26.2
			C-62.5,469.8-64.4,467.4-68.6,465.3z M52.8,486.8c0.5,0.2,1,0.4,1.5,0.7c4.4-6.8,8.9-13.5,12.9-20.5c0.6-1-0.8-3.9-2-5.1
			c-1.5-1.4-3.9-1.8-6.6-3c1,1.9,1.5,3,2.7,5.4c-3.2-0.4-5.5-0.6-8.4-0.9C52.8,470.7,52.8,478.8,52.8,486.8z M43.2,445.5
			c1.6-1.4,2.7-3.3,4.2-3.7c2.7-0.8,2.4-2.6,2.5-4.6c0.2-4,0.5-8,0.7-12c0.1-2.4,0.3-4.7,0.4-7c-3.8-1.3-6.2-0.2-7.3,3.2
			c-0.6,2-1,4.1-1.3,6.1c-0.5,2.7,0.3,5.5-2.3,7.9C37.8,437.7,40.1,444,43.2,445.5z M-43.9,405.1c0,4.5,0,8.3,0,11.1
			c8.5-3.9,17.1-7.9,24.1-11.1C-26.5,405.1-35,405.1-43.9,405.1z M77.4,440.3c-10.2-2.9-13.6-1.3-15,9.3c4.2-0.5,8.5-0.4,12.1-1.9
			C76.1,447,76.4,443.1,77.4,440.3z M35.5,432c-2.6-4.1-5-7.6-7-11.3c-1.9-3.6-4.6-5.2-8.9-4.9c2,2.1,4,3.9,5.6,6
			c4.1,5.6,9.8,10.6,8,18.8c-0.2,0.9,0.9,2.1,1.4,3.1c0.3-0.1,0.6-0.2,0.9-0.4C35.5,439.2,35.5,435.1,35.5,432z M-76.8,470.2
			c0.3,0,0.6,0,1,0c1.3-2.6,2.8-5.2,4-7.9c0.4-0.9,0.2-2.6-0.5-3.2c-2.6-2.4-5.4-4.4-9.1-7.4C-79.7,458.6-78.2,464.4-76.8,470.2z
			 M-7.8,404.5c5.3,0.6,10.2,1.3,15.4,1.9c0-1.8,0-3.3,0-4.9c-5.3-0.7-10.4-1.3-15.8-2C-8.1,401-7.9,402.8-7.8,404.5z M-83.7,452.2
			c-0.5,0-1,0.1-1.4,0.1c0.6,9.3,1.2,18.6,1.9,27.9c0.4,0.1,0.8,0.2,1.2,0.2c0.8-1.7,2.3-3.5,2.1-5.1
			C-80.9,467.6-82.4,459.9-83.7,452.2z M78.5,436.2c-0.2-4.5-0.4-8.4-0.7-13.1c-3.3,4.6-6.2,8.6-9.4,13.1
			C72.3,436.2,75.5,436.2,78.5,436.2z M-5.3,381.3c-0.3-2.8-0.2-5.2-0.8-7.5c-0.3-1.1-1.7-2.2-2.8-2.5c-0.5-0.2-2.1,1.4-2.3,2.4
			c-0.6,2.4-0.7,4.9-1,7.6C-9.7,381.3-7.9,381.3-5.3,381.3z M66.3,455c0,0.5-0.1,1-0.1,1.5c2.7,1,5.4,2,8.4,3.2c0-2.5,0-4.2,0-6.2
			C71.6,453.9,68.9,454.5,66.3,455z M60.6,347.4c7.6,4.7,16.1,5.4,24.6,5.9C77,351.3,68.8,349.4,60.6,347.4z M29.9,417.9
			c1.8,2.8,3.2,5.1,4.7,7.3c0.5-0.1,1-0.3,1.5-0.4c0.2-2.3,0.4-4.5,0.7-6.9C34.3,417.9,32.6,417.9,29.9,417.9z M90.5,353.8
			c9.8,1.6,22.9-0.3,25.5-2.9C108,351.8,99.1,352.8,90.5,353.8z M87.3,427.9c-1.9,8.5-1.2,10.3,3.9,10.6
			C90,435.1,88.8,432,87.3,427.9z M60.6,379.3c-1-3-1.9-5.8-2.9-8.7C56.7,379.8,56.7,379.8,60.6,379.3z"/>
	</g>
</g>
</svg>
